<svg width="139" height="139" viewBox="0 0 139 139" fill="none" xmlns="http://www.w3.org/2000/svg">
<path d="M62.6509 42.5117C46.4524 42.5117 33.2747 55.6899 33.2747 71.8879C33.2747 88.0859 46.4524 101.264 62.6509 101.264C78.8489 101.264 92.0266 88.0859 92.0266 71.8879C92.0266 55.6899 78.8489 42.5117 62.6509 42.5117ZM62.6509 102.587C45.7231 102.587 31.9519 88.8153 31.9519 71.8879C31.9519 54.9606 45.7231 41.1889 62.6509 41.1889C79.5782 41.1889 93.3494 54.9606 93.3494 71.8879C93.3494 88.8153 79.5782 102.587 62.6509 102.587Z" fill="#483127"/>
<path d="M76.3489 80.3989H74.2197C73.2113 86.3509 69.5701 89.5455 64.1912 89.5455C55.0033 89.5455 50.0732 82.5498 50.0732 71.7372C50.0732 61.0364 55.0594 54.2187 62.847 54.2187C68.5056 54.2187 72.539 57.2515 74.3319 63.4242H76.2371L75.9005 54.7542C73.9735 54.0202 69.528 52.824 65.642 52.4327L62.5707 50.5896L59.6997 52.5208C50.7274 53.883 44.5269 60.6506 44.5269 72.2546C44.5269 82.317 50.3328 89.4083 59.721 91.0116L59.5982 91.0051L62.5605 93.0573L65.6133 91.2944C69.5701 91.0232 72.9187 89.9475 75.6209 88.8176L76.3489 80.3989Z" fill="#483127"/>
<path d="M67.4441 71.4229C67.4441 73.8464 65.4796 75.8114 63.0556 75.8114C60.632 75.8114 58.6675 73.8464 58.6675 71.4229C58.6675 68.9993 60.632 67.0343 63.0556 67.0343C65.4796 67.0343 67.4441 68.9993 67.4441 71.4229Z" fill="#483127"/>
<path d="M71.0399 32.6826C70.0356 32.5147 69.0183 32.3844 67.9899 32.294L67.5935 36.1948C68.6247 36.2593 69.6452 36.3627 70.6514 36.511L71.0399 32.6826Z" fill="#483127"/>
<path d="M72.0001 23.2276C70.9916 23.0783 69.9734 22.9601 68.9469 22.8706L68.5667 26.6151C69.5941 26.7074 70.6114 26.833 71.618 26.9925L72.0001 23.2276Z" fill="#483127"/>
<path d="M73.3471 9.97013C72.3363 9.8315 71.3177 9.71697 70.2925 9.62517L69.3462 18.9392C70.3723 19.0296 71.391 19.1474 72.3999 19.2934L73.3471 9.97013Z" fill="#483127"/>
<path d="M74.3435 0.1609C73.3253 0.0834689 72.3001 0.0324559 71.2703 0L70.6921 5.69377C71.7168 5.78604 72.735 5.89963 73.7467 6.03595L74.3435 0.1609Z" fill="#483127"/>
<path d="M9.56222 76.455L0.476318 77.3299C0.599189 78.3522 0.744785 79.3672 0.911703 80.3757L9.79962 79.5197C9.69298 78.5057 9.61276 77.4843 9.56222 76.455Z" fill="#483127"/>
<path d="M19.351 75.5123L13.5015 76.0757C13.5488 77.1055 13.6262 78.1274 13.7338 79.1409L19.7076 78.5655C19.5541 77.5585 19.4363 76.5398 19.351 75.5123Z" fill="#483127"/>
<path d="M25.0322 74.9657C25.1161 75.9941 25.2395 77.0123 25.4008 78.0175L27.938 77.7731C27.7743 76.7689 27.6496 75.7516 27.5712 74.7209L25.0322 74.9657Z" fill="#483127"/>
<path d="M48.3864 21.1291C49.3634 20.8295 50.3519 20.5578 51.3506 20.3121L48.653 11.3203C47.6562 11.5711 46.6685 11.8456 45.6907 12.1424L48.3864 21.1291Z" fill="#483127"/>
<path d="M50.628 28.6014C51.5999 28.288 52.5856 28.007 53.5843 27.7594L52.4873 24.1021C51.4877 24.3441 50.4982 24.6139 49.5222 24.9139L50.628 28.6014Z" fill="#483127"/>
<path d="M55.2272 33.2338C54.2257 33.4745 53.2395 33.7541 52.269 34.0698L53.3169 37.5621C54.2971 37.2788 55.2954 37.0373 56.308 36.8374L55.2272 33.2338Z" fill="#483127"/>
<path d="M47.5155 7.53032L46.3865 3.76631C45.4142 4.10386 44.4516 4.46041 43.4993 4.83968L44.555 8.35749C45.5334 8.06121 46.5196 7.78395 47.5155 7.53032Z" fill="#483127"/>
<path d="M21.1705 46.7482C20.628 47.6166 20.1077 48.5003 19.6172 49.4022L23.8704 51.6926C24.3261 50.7723 24.8116 49.8695 25.3263 48.9858L21.1705 46.7482Z" fill="#483127"/>
<path d="M30.3545 51.6931C29.8357 52.5745 29.3488 53.4764 28.8977 54.3995L31.3542 55.7223C31.8211 54.8066 32.3279 53.915 32.869 53.047L30.3545 51.6931Z" fill="#483127"/>
<path d="M17.6849 44.8718L9.20551 40.3061C8.66859 41.1778 8.15161 42.0634 7.65503 42.9615L16.1386 47.5295C16.6287 46.6276 17.1466 45.7425 17.6849 44.8718Z" fill="#483127"/>
<path d="M15.687 58.7445L20.6612 60.2657C20.9222 59.2703 21.2152 58.2882 21.5403 57.3206L16.6802 55.8345C16.3213 56.7915 15.9889 57.7615 15.687 58.7445Z" fill="#483127"/>
<path d="M27.0008 58.9902C26.6716 59.956 26.3795 60.9385 26.125 61.9359L28.6747 62.7153C28.9403 61.7203 29.2464 60.7415 29.5932 59.7826L27.0008 58.9902Z" fill="#483127"/>
<path d="M12.8935 54.6768L3.58925 51.8327C3.23455 52.7915 2.90396 53.762 2.59424 54.7417L11.9083 57.5895C12.2101 56.6065 12.5384 55.6356 12.8935 54.6768Z" fill="#483127"/>
<path d="M10.1533 65.2023L0.372785 64.2087C0.233687 65.0999 0.115464 65.998 0.0129952 66.9007C0.0092859 67.0204 0.00278197 67.14 0 67.2605L9.76423 68.2523C9.86624 67.2271 9.99607 66.2103 10.1533 65.2023Z" fill="#483127"/>
<path d="M13.696 68.6516L19.2618 69.2172C19.3184 68.187 19.4093 67.166 19.534 66.1552L14.0925 65.6025C13.9311 66.6096 13.7976 67.6259 13.696 68.6516Z" fill="#483127"/>
<path d="M25.2129 66.732C25.085 67.7414 24.9964 68.7628 24.9468 69.794L27.5173 70.0555C27.5711 69.0234 27.6713 68.0034 27.8108 66.9958L25.2129 66.732Z" fill="#483127"/>
<path d="M24.2175 36.3075L16.8537 30.2368C16.1577 30.9893 15.4793 31.7585 14.8191 32.543L22.1858 38.6156C22.8414 37.8269 23.5192 37.0581 24.2175 36.3075Z" fill="#483127"/>
<path d="M30.6698 41.6266L27.2702 38.8238C26.5692 39.5717 25.889 40.339 25.2334 41.1277L28.703 43.9885C29.3326 43.1785 29.9887 42.3912 30.6698 41.6266Z" fill="#483127"/>
<path d="M35.0745 45.2575C34.3892 46.0184 33.7336 46.8066 33.1077 47.6194L35.3903 49.5009C36.0348 48.7025 36.7112 47.9314 37.4206 47.191L35.0745 45.2575Z" fill="#483127"/>
<path d="M59.4794 26.7078C60.492 26.5961 61.5139 26.5177 62.5446 26.4741L62.1839 22.7282C61.1541 22.7741 60.1318 22.8492 59.1187 22.9559L59.4794 26.7078Z" fill="#483127"/>
<path d="M63.4415 36.1609C63.4536 36.16 63.4656 36.1591 63.4772 36.1586L63.0928 32.1646C62.0607 32.2003 61.0379 32.2764 60.0271 32.39L60.4003 36.2731C61.3476 36.198 62.3051 36.1586 63.2713 36.1586C63.3284 36.1586 63.3845 36.1605 63.4415 36.1609Z" fill="#483127"/>
<path d="M58.7395 19.0217C59.7535 18.916 60.7754 18.8381 61.8047 18.7885L60.9066 9.46288C59.8787 9.51898 58.8568 9.59688 57.8423 9.70074L58.7395 19.0217Z" fill="#483127"/>
<path d="M60.5283 5.52778L60.0479 0.542494C59.0264 0.675565 58.012 0.830418 57.0049 1.00754L57.4634 5.76701C58.4784 5.66362 59.5008 5.5862 60.5283 5.52778Z" fill="#483127"/>
<path d="M38.5227 25.2496C39.4236 24.7651 40.3403 24.306 41.2709 23.8711L36.8475 15.5526C35.9197 15.9912 35.0036 16.4512 34.1003 16.932L38.5227 25.2496Z" fill="#483127"/>
<path d="M47.664 35.8957C46.7349 36.3334 45.8247 36.8054 44.9368 37.3122L46.5299 40.3084C47.4336 39.8294 48.3591 39.3862 49.3068 38.9846L47.664 35.8957Z" fill="#483127"/>
<path d="M43.1279 27.3644C42.1959 27.7956 41.2783 28.2532 40.3774 28.7377L42.2571 32.2727C43.1474 31.7691 44.0552 31.2939 44.9816 30.8502L43.1279 27.3644Z" fill="#483127"/>
<path d="M34.9902 12.0594L33.7193 9.66919C32.8361 10.1959 31.9662 10.7421 31.1094 11.3064L32.2458 13.4439C33.149 12.9631 34.0638 12.5008 34.9902 12.0594Z" fill="#483127"/>
<path d="M37.2168 35.5837L34.5949 32.3696C33.7644 32.9714 32.9521 33.5964 32.1602 34.246L34.8285 37.5176C35.6015 36.8462 36.3989 36.2022 37.2168 35.5837Z" fill="#483127"/>
<path d="M40.8239 40.007C40.0023 40.6209 39.2072 41.2677 38.437 41.9423L40.4322 44.3886C41.2204 43.7349 42.0387 43.1154 42.8816 42.5303L40.8239 40.007Z" fill="#483127"/>
<path d="M32.0952 29.3043L26.1084 21.9632C25.2821 22.5711 24.4712 23.1979 23.6755 23.8433L29.6637 31.1854C30.4557 30.5358 31.2671 29.9094 32.0952 29.3043Z" fill="#483127"/>
<path d="M23.6077 18.8979L22.7152 17.8032C21.9534 18.4927 21.2083 19.2002 20.478 19.9226L21.1795 20.7822C21.9747 20.1373 22.7838 19.5081 23.6077 18.8979Z" fill="#483127"/>
<path d="M11.1899 87.2898L3.13013 89.7078C3.43707 90.6884 3.76581 91.6598 4.11541 92.621L12.0329 90.2456C11.7255 89.2715 11.444 88.2862 11.1899 87.2898Z" fill="#483127"/>
<path d="M21.94 87.2736C21.5886 86.3143 21.271 85.3392 20.984 84.3516L14.9805 86.1529C15.2308 87.1502 15.5104 88.1365 15.8188 89.1101L21.94 87.2736Z" fill="#483127"/>
<path d="M26.4509 82.7111C26.737 83.7006 27.0611 84.6729 27.4214 85.6289L29.8741 84.8931C29.5055 83.9408 29.1763 82.9689 28.8884 81.9799L26.4509 82.7111Z" fill="#483127"/>
<path d="M90.1492 122.344L95.0195 131.504C95.9241 131.02 96.8162 130.514 97.6944 129.989L92.825 120.832C91.9486 121.36 91.0561 121.864 90.1492 122.344Z" fill="#483127"/>
<path d="M20.7831 107.056L14.877 111.873C15.5131 112.677 16.165 113.467 16.8359 114.241L22.7161 109.445C22.0503 108.667 21.4058 107.87 20.7831 107.056Z" fill="#483127"/>
<path d="M23.8457 104.559C24.4661 105.374 25.1097 106.172 25.7773 106.949L31.2606 102.477C30.5646 101.724 29.8937 100.949 29.2487 100.152L23.8457 104.559Z" fill="#483127"/>
<path d="M33.6697 96.5458C34.3142 97.3438 34.9879 98.1172 35.6908 98.8632L37.8102 97.1347C37.0887 96.4049 36.3988 95.645 35.7418 94.8558L33.6697 96.5458Z" fill="#483127"/>
<path d="M29.4009 90.0444C29.8775 90.9546 30.3889 91.8434 30.9333 92.7104L33.2497 91.4785C32.691 90.6207 32.168 89.7374 31.683 88.831L29.4009 90.0444Z" fill="#483127"/>
<path d="M18.4951 95.8434C18.9412 96.7679 19.4178 97.6749 19.9176 98.5674L25.8826 95.3955C25.3466 94.5238 24.8399 93.6327 24.3623 92.7234L18.4951 95.8434Z" fill="#483127"/>
<path d="M15.0051 97.699L8.03027 101.407C8.51202 102.313 9.01371 103.207 9.53393 104.088L16.429 100.423C15.9301 99.529 15.4544 98.6217 15.0051 97.699Z" fill="#483127"/>
<path d="M99.1475 116.38L105.667 124.374C106.458 123.722 107.234 123.052 107.994 122.364L101.478 114.377C100.721 115.066 99.9426 115.733 99.1475 116.38Z" fill="#483127"/>
<path d="M79.9937 126.482L82.9871 136.459C83.9719 136.166 84.947 135.849 85.9119 135.511L82.9175 125.531C81.955 125.874 80.9803 126.191 79.9937 126.482Z" fill="#483127"/>
<path d="M23.5708 121.004C24.3414 121.679 25.1278 122.336 25.9285 122.976L30.7557 117.12C29.9471 116.49 29.1561 115.838 28.3841 115.165L23.5708 121.004Z" fill="#483127"/>
<path d="M45.1267 133.834C46.086 134.187 47.0564 134.519 48.0352 134.831L50.4616 126.896C49.4675 126.633 48.485 126.342 47.5136 126.027L45.1267 133.834Z" fill="#483127"/>
<path d="M57.3447 137.097C58.3518 137.269 59.3658 137.422 60.3877 137.549L61.2951 128.616C60.2663 128.557 59.2457 128.468 58.2326 128.353L57.3447 137.097Z" fill="#483127"/>
<path d="M105.845 103.596L100.489 99.1813C99.8672 99.996 99.2176 100.789 98.5425 101.559L103.968 106.032C104.618 105.24 105.243 104.427 105.845 103.596Z" fill="#483127"/>
<path d="M94.1376 97.9285C94.8164 97.1616 95.466 96.3687 96.0845 95.5504L94.8308 94.5169C94.2229 95.3431 93.578 96.1402 92.9043 96.9117L94.1376 97.9285Z" fill="#483127"/>
<path d="M107.016 108.544L114.913 115.054C115.557 114.258 116.185 113.447 116.793 112.621L108.898 106.113C108.292 106.941 107.666 107.753 107.016 108.544Z" fill="#483127"/>
<path d="M69.2808 128.5L70.2025 138.073C71.2337 138.057 72.2593 138.017 73.2789 137.955L72.3349 128.149C71.325 128.293 70.3073 128.411 69.2808 128.5Z" fill="#483127"/>
<path d="M92.6729 48.4243C93.354 49.1889 94.0073 49.979 94.623 50.7992L96.8648 48.971C96.2741 48.1322 95.6519 47.3162 94.999 46.527L92.6729 48.4243Z" fill="#483127"/>
<path d="M125.38 106.349L126.693 107.057C127.258 106.201 127.805 105.332 128.334 104.45L126.757 103.6C126.317 104.528 125.858 105.444 125.38 106.349Z" fill="#483127"/>
<path d="M110.858 95.0399L105.034 91.9037C104.575 92.8222 104.086 93.7236 103.568 94.605L109.485 97.7917C109.97 96.8904 110.427 95.9723 110.858 95.0399Z" fill="#483127"/>
<path d="M97.0579 91.1002L98.5393 91.8977C99.0618 91.019 99.5519 90.1177 100.006 89.1968L98.4836 88.3766C98.0464 89.3072 97.5688 90.2141 97.0579 91.1002Z" fill="#483127"/>
<path d="M112.964 99.6644L121.9 104.476C122.379 103.571 122.836 102.654 123.272 101.724L114.342 96.9154C113.907 97.846 113.448 98.7631 112.964 99.6644Z" fill="#483127"/>
<path d="M116.451 55.7094C116.787 56.6747 117.099 57.6507 117.381 58.6397L126.716 55.8392C126.424 54.8539 126.109 53.8784 125.77 52.9135L116.451 55.7094Z" fill="#483127"/>
<path d="M99.8916 60.6775C100.229 61.6405 100.535 62.6184 100.792 63.6162L103.09 62.9272C102.861 61.9224 102.595 60.9321 102.291 59.9579L99.8916 60.6775Z" fill="#483127"/>
<path d="M107.758 58.3175C108.061 59.2925 108.33 60.282 108.567 61.2835L113.596 59.7752C113.315 58.7858 113.001 57.8102 112.662 56.8463L107.758 58.3175Z" fill="#483127"/>
<path d="M136.23 52.9844C135.989 51.9843 135.734 50.9916 135.451 50.0086L129.563 51.7766C129.897 52.7424 130.207 53.7184 130.499 54.7032L136.23 52.9844Z" fill="#483127"/>
<path d="M98.3245 56.8773L100.657 55.6375C100.238 54.6991 99.785 53.7787 99.2963 52.8801L96.8677 54.1714C97.3874 55.0519 97.8785 55.9519 98.3245 56.8773Z" fill="#483127"/>
<path d="M133.017 67.6556L138.08 67.1678C138.052 66.1376 138.001 65.1138 137.927 64.0951L132.651 64.6028C132.794 65.6141 132.915 66.6314 133.017 67.6556Z" fill="#483127"/>
<path d="M128.714 64.9821L118.928 65.9247C119.072 66.9341 119.188 67.9523 119.276 68.9789L129.081 68.0344C128.983 67.0097 128.863 65.9924 128.714 64.9821Z" fill="#483127"/>
<path d="M101.885 70.6532L104.054 70.4445C104.021 69.4115 103.948 68.3891 103.837 67.3774L101.578 67.5953C101.721 68.6024 101.825 69.6215 101.885 70.6532Z" fill="#483127"/>
<path d="M115.343 69.3572C115.255 68.3307 115.138 67.312 114.991 66.3035L109.519 66.8303C109.628 67.8429 109.703 68.8653 109.744 69.8965L115.343 69.3572Z" fill="#483127"/>
<path d="M114.125 85.6262L108.148 83.7989C107.874 84.7906 107.566 85.768 107.227 86.7311L113.317 88.5927C113.616 87.6162 113.885 86.6268 114.125 85.6262Z" fill="#483127"/>
<path d="M100.887 81.5789C100.642 82.5804 100.352 83.5629 100.026 84.5296L101.763 85.0605C102.108 84.1003 102.416 83.1224 102.687 82.1297L100.887 81.5789Z" fill="#483127"/>
<path d="M127.513 89.7198L117.909 86.7835C117.665 87.7822 117.394 88.7712 117.096 89.7481L126.711 92.6877C127.003 91.708 127.268 90.7186 127.513 89.7198Z" fill="#483127"/>
<path d="M130.49 93.8432L133.184 94.6671C133.564 93.7161 133.921 92.754 134.264 91.7831L131.301 90.8771C131.051 91.8745 130.782 92.863 130.49 93.8432Z" fill="#483127"/>
<path d="M33.6814 128.357C34.5605 128.882 35.4512 129.389 36.3549 129.875L40.0669 122.981C39.1484 122.524 38.2429 122.043 37.3541 121.536L33.6814 128.357Z" fill="#483127"/>
<path d="M119.193 79.3677L129.09 80.3729C129.187 79.3565 129.261 78.3346 129.308 77.3058L119.42 76.3015C119.372 77.3303 119.298 78.3532 119.193 79.3677Z" fill="#483127"/>
<path d="M101.909 74.5224C101.86 75.5555 101.763 76.5746 101.631 77.5835L103.613 77.7852C103.769 76.7791 103.886 75.7609 103.964 74.7311L101.909 74.5224Z" fill="#483127"/>
<path d="M115.481 75.9009L109.644 75.3083C109.562 76.3362 109.446 77.3544 109.297 78.3624L115.262 78.968C115.366 77.9544 115.437 76.9316 115.481 75.9009Z" fill="#483127"/>
<path d="M133.022 80.7721L137.037 81.1801C137.218 80.174 137.371 79.1595 137.505 78.138L133.244 77.7059C133.198 78.7343 133.119 79.7562 133.022 80.7721Z" fill="#483127"/>
<path d="M50.7404 37.4518C51.167 37.334 51.5963 37.2232 52.0289 37.1203L50.9528 34.5214C50.5392 34.6721 50.1298 34.8312 49.7231 34.9953L50.7404 37.4518Z" fill="#483127"/>
<path d="M46.0476 26.1218L47.5387 29.7226C47.9454 29.558 48.3543 29.3975 48.767 29.2445L47.2819 25.6609C46.8683 25.8097 46.4566 25.9627 46.0476 26.1218Z" fill="#483127"/>
<path d="M45.768 22.0049L42.2512 13.5143C41.8441 13.6799 41.4388 13.8496 41.0364 14.0234L44.5352 22.47C44.9436 22.31 45.3544 22.1551 45.768 22.0049Z" fill="#483127"/>
<path d="M36.0576 26.6568L31.2013 19.3746C30.8359 19.6184 30.4738 19.8665 30.1135 20.1178L34.9393 27.3537C35.3093 27.1172 35.6821 26.8849 36.0576 26.6568Z" fill="#483127"/>
<path d="M43.5651 40.2876C43.9564 40.0821 44.3482 39.8781 44.7478 39.6871L43.6685 38.0685C43.2948 38.3003 42.9252 38.5377 42.5603 38.7811L43.5651 40.2876Z" fill="#483127"/>
<path d="M40.5008 33.3196L38.2525 29.9479C37.876 30.1746 37.5023 30.4055 37.1318 30.6415L39.395 34.0346C39.7599 33.7907 40.1289 33.5529 40.5008 33.3196Z" fill="#483127"/>
<path d="M55.5421 19.3449L53.7213 10.15C53.2868 10.2182 52.8528 10.2891 52.4211 10.3656L54.2415 19.5586C54.6736 19.4826 55.1067 19.4107 55.5421 19.3449Z" fill="#483127"/>
<path d="M56.8538 32.7512L57.5358 36.1962C57.9777 36.1684 58.4218 36.1517 58.8674 36.1392L58.1557 32.5439C57.7194 32.607 57.2854 32.6742 56.8538 32.7512Z" fill="#483127"/>
<path d="M55.7447 27.1515C56.1759 27.0732 56.6099 27.0018 57.0453 26.9364L56.3108 23.2271C55.8754 23.2916 55.4414 23.3616 55.0098 23.4367L55.7447 27.1515Z" fill="#483127"/>
<path d="M14.5844 50.623L7.9652 47.8809C7.80013 48.2876 7.64017 48.6965 7.48438 49.1078L14.0438 51.8244C14.2195 51.4214 14.3999 51.0213 14.5844 50.623Z" fill="#483127"/>
<path d="M22.7951 54.0239L18.2387 52.1364C18.0523 52.5337 17.8715 52.9339 17.6948 53.3368L22.2967 55.2429C22.4571 54.8335 22.6231 54.4273 22.7951 54.0239Z" fill="#483127"/>
<path d="M38.2015 43.7195L37.3822 42.9003C37.0623 43.2012 36.747 43.5067 36.4368 43.8174L37.1605 44.5416C37.5013 44.2597 37.8509 43.9894 38.2015 43.7195Z" fill="#483127"/>
<path d="M33.3461 38.8641L30.3156 35.8341C29.9896 36.1285 29.6665 36.4266 29.3484 36.7289L32.403 39.7835C32.7132 39.4724 33.0271 39.1659 33.3461 38.8641Z" fill="#483127"/>
<path d="M21.6716 27.1896C21.3609 27.5002 21.0549 27.815 20.7512 28.1317L26.554 33.9349C26.872 33.6317 27.1933 33.3326 27.5184 33.0368L21.6716 27.1896Z" fill="#483127"/>
<path d="M3.45801 71.574C3.46821 71.574 3.48535 72.9103 3.50483 72.9103H9.49719C9.49719 72.9103 9.49348 72.6993 9.49348 72.5978C9.49348 72.2588 9.50045 71.574 9.50648 71.574H3.45801Z" fill="#483127"/>
<path d="M13.4448 72.5978C13.4448 72.6993 13.4485 72.9103 13.4485 72.9103H19.2494C19.2271 72.9103 19.2128 71.574 19.204 71.574H13.4578C13.4578 71.574 13.4448 72.2588 13.4448 72.5978Z" fill="#483127"/>
<path d="M27.3143 45.8756L23.5044 43.325C23.2429 43.6774 22.9856 44.0335 22.7324 44.3928L26.5766 46.9661C26.8173 46.5989 27.063 46.2354 27.3143 45.8756Z" fill="#483127"/>
<path d="M20.2194 41.1258L13.7949 36.8249C13.5524 37.1907 13.3127 37.5584 13.0776 37.9293L19.4502 42.195C19.7024 41.8357 19.9593 41.4791 20.2194 41.1258Z" fill="#483127"/>
<path d="M14.5627 63.0802L19.8309 64.1327C19.9051 63.6992 19.9839 63.2671 20.0692 62.8372L14.8544 61.7954C14.7515 62.2215 14.6545 62.6499 14.5627 63.0802Z" fill="#483127"/>
<path d="M10.9757 61.0201L4.50209 59.727C4.42141 60.1577 4.34631 60.5903 4.2749 61.0243L10.6873 62.3059C10.7787 61.8756 10.8742 61.4467 10.9757 61.0201Z" fill="#483127"/>
<path d="M115.528 53.2454L124.184 49.6599C124.031 49.2473 123.878 48.8365 123.716 48.4285L115.021 52.0293C115.195 52.4322 115.364 52.8379 115.528 53.2454Z" fill="#483127"/>
<path d="M107.215 56.6886L111.878 54.7575C111.714 54.3494 111.544 53.9442 111.371 53.5417L106.759 55.452C106.917 55.8614 107.069 56.2736 107.215 56.6886Z" fill="#483127"/>
<path d="M101.935 58.8757C101.791 58.4598 101.64 58.0471 101.484 57.6373L96.8645 59.5503C97.0166 59.9621 97.1603 60.378 97.2976 60.7967L101.935 58.8757Z" fill="#483127"/>
<path d="M103.692 66.2173C103.631 65.781 103.563 65.3466 103.488 64.9149L98.5605 65.8904C98.6343 66.3226 98.701 66.757 98.759 67.1943L103.692 66.2173Z" fill="#483127"/>
<path d="M109.09 63.8058C109.167 64.237 109.235 64.6715 109.299 65.1068L114.61 64.0557C114.527 63.6236 114.438 63.1938 114.344 62.7654L109.09 63.8058Z" fill="#483127"/>
<path d="M127.272 61.5487C127.203 61.1143 127.133 60.6803 127.054 60.2486L118.222 61.9976C118.315 62.426 118.403 62.8563 118.486 63.2884L127.272 61.5487Z" fill="#483127"/>
<path d="M98.802 51.9987C98.5822 51.6176 98.3541 51.242 98.1223 50.8687L94.0161 53.6071C94.2424 53.9845 94.4612 54.3657 94.6731 54.7519L98.802 51.9987Z" fill="#483127"/>
<path d="M79.205 11.0467C78.778 10.9475 78.3482 10.8548 77.9188 10.7639L76.0818 19.956C76.5121 20.0487 76.94 20.1461 77.3661 20.2486L79.205 11.0467Z" fill="#483127"/>
<path d="M74.7217 33.481C74.2979 33.3678 73.8723 33.2584 73.443 33.1592L72.5981 37.3882C73.0247 37.5032 73.4485 37.6238 73.8681 37.7536L74.7217 33.481Z" fill="#483127"/>
<path d="M76.5907 24.1275C76.1651 24.0237 75.7376 23.9249 75.3073 23.8313L74.5618 27.5605C74.9911 27.6583 75.4186 27.7613 75.8429 27.8711L76.5907 24.1275Z" fill="#483127"/>
<path d="M80.3404 35.4845C79.3834 35.1358 78.4074 34.8224 77.4129 34.5451L76.3103 38.3077C77.3123 38.5599 78.2966 38.8479 79.2583 39.1771L80.3404 35.4845Z" fill="#483127"/>
<path d="M83.0125 26.3642C82.0486 26.0332 81.0693 25.7309 80.0762 25.4555L79.0181 29.0674C80.0108 29.346 80.9882 29.6548 81.9484 29.9961L83.0125 26.3642Z" fill="#483127"/>
<path d="M86.7598 13.576C85.7912 13.2551 84.811 12.9561 83.8197 12.6793L81.187 21.6632C82.1792 21.9395 83.1585 22.2414 84.1243 22.5696L86.7598 13.576Z" fill="#483127"/>
<path d="M89.5325 4.11454C88.5454 3.8521 87.5467 3.61471 86.5401 3.39401L84.9312 8.88699C85.9215 9.16472 86.9022 9.46239 87.8717 9.78139L89.5325 4.11454Z" fill="#483127"/>
<path d="M92.3218 15.7056C91.9208 15.5299 91.515 15.3602 91.1089 15.1923L87.623 23.8938C88.0288 24.0631 88.4322 24.2374 88.8328 24.4164L92.3218 15.7056Z" fill="#483127"/>
<path d="M83.8146 36.9427C83.4186 36.754 83.0203 36.569 82.6165 36.3923L81.0127 40.396C81.4105 40.5866 81.8056 40.7827 82.1946 40.9867L83.8146 36.9427Z" fill="#483127"/>
<path d="M88.8918 40.2987C88.0701 39.6959 87.2207 39.1219 86.3439 38.5775L84.2329 41.882C85.1245 42.4041 85.9888 42.9559 86.8201 43.541L88.8918 40.2987Z" fill="#483127"/>
<path d="M92.3307 42.7482C92.0076 42.451 91.6811 42.157 91.3473 41.8695L88.6377 45.2251C88.9618 45.5246 89.2822 45.8274 89.5933 46.1375L92.3307 42.7482Z" fill="#483127"/>
<path d="M87.3622 28.0881C86.9625 27.9078 86.5592 27.733 86.1535 27.5623L84.7397 31.0922C85.1441 31.267 85.5451 31.4464 85.942 31.6319L87.3622 28.0881Z" fill="#483127"/>
<path d="M93.111 31.6746C92.2444 31.1376 91.3565 30.6258 90.4491 30.1371L88.6167 33.4249C89.5236 33.9164 90.4078 34.4343 91.2693 34.9795L93.111 31.6746Z" fill="#483127"/>
<path d="M99.5995 20.0343C98.7264 19.5067 97.8366 18.9981 96.9316 18.5084L92.3733 26.6856C93.2797 27.1747 94.1681 27.6866 95.037 28.2203L99.5995 20.0343Z" fill="#483127"/>
<path d="M104.4 11.4223C103.496 10.948 102.574 10.495 101.642 10.0573L98.8552 15.0565C99.7598 15.547 100.65 16.0547 101.525 16.5805L104.4 11.4223Z" fill="#483127"/>
<path d="M104.551 23.344C104.199 23.0834 103.842 22.8284 103.482 22.5743L98.1548 30.2868C98.5132 30.5423 98.8674 30.8015 99.2184 31.0648L104.551 23.344Z" fill="#483127"/>
<path d="M96.9705 34.3188C96.6204 34.0545 96.2666 33.7949 95.9082 33.5385L93.7471 36.6677C94.1027 36.9274 94.4542 37.1912 94.8005 37.4606L96.9705 34.3188Z" fill="#483127"/>
<path d="M101.866 39.0764C101.145 38.3554 100.399 37.6535 99.6279 36.9696L97.0898 39.7492C97.86 40.4354 98.6023 41.1425 99.3149 41.8714L101.866 39.0764Z" fill="#483127"/>
<path d="M110.852 29.2357C110.123 28.5217 109.373 27.8225 108.605 27.1376L102.292 34.0513C103.062 34.7357 103.81 35.4372 104.532 36.1563L110.852 29.2357Z" fill="#483127"/>
<path d="M117.5 21.9544C116.729 21.2853 115.936 20.6329 115.129 19.9926L111.269 24.2193C112.037 24.9042 112.788 25.6024 113.518 26.3151L117.5 21.9544Z" fill="#483127"/>
<path d="M114.913 33.5923C114.629 33.2584 114.339 32.9278 114.049 32.5986L107.094 38.8831C107.384 39.2137 107.67 39.5475 107.95 39.8841L114.913 33.5923Z" fill="#483127"/>
<path d="M105.016 42.5358C104.736 42.1983 104.451 41.8644 104.161 41.5329L101.34 44.0826C101.627 44.4169 101.908 44.754 102.183 45.0957L105.016 42.5358Z" fill="#483127"/>
<path d="M108.839 49.1064C108.342 48.2166 107.813 47.338 107.258 46.4704L104.06 48.4563C104.615 49.3257 105.137 50.208 105.625 51.1024L108.839 49.1064Z" fill="#483127"/>
<path d="M120.16 42.0763C119.652 41.1908 119.122 40.3144 118.568 39.4469L110.614 44.3858C111.17 45.2533 111.698 46.132 112.199 47.0204L120.16 42.0763Z" fill="#483127"/>
<path d="M128.538 36.8745C127.977 36.0214 127.388 35.1784 126.785 34.3429L121.925 37.3623C122.477 38.2298 123.01 39.1056 123.521 39.9903L128.538 36.8745Z" fill="#483127"/>
<path d="M94.3332 45.7444C94.0444 45.4129 93.7486 45.0874 93.449 44.7661L90.0337 48.1814C90.3258 48.5106 90.6147 48.843 90.8952 49.1829L94.3332 45.7444Z" fill="#483127"/>
<path d="M65.8061 18.7523V9.38683C65.1375 9.37524 65.1375 9.3706 65.1375 9.36829V18.7277C65.1375 18.731 65.1375 18.7389 65.8061 18.7523Z" fill="#483127"/>
<path d="M65.8061 26.4663V22.7064C65.1375 22.6916 65.1375 22.6823 65.1375 22.6791V26.4352C65.1375 26.4389 65.1375 26.4496 65.8061 26.4663Z" fill="#483127"/>
<path d="M65.8061 32.1776C65.1375 32.1586 65.1375 32.1475 65.1375 32.1429V36.2068C65.3614 36.2184 65.5835 36.2337 65.8061 36.249V32.1776Z" fill="#483127"/>
<path d="M97.0836 94.1668C97.3326 93.8056 97.5783 93.4416 97.8157 93.0721L93.9275 90.4696C93.7003 90.8456 93.4647 91.2161 93.2236 91.5828L97.0836 94.1668Z" fill="#483127"/>
<path d="M108.21 100.03L102.557 96.2463C102.319 96.6154 102.074 96.9794 101.825 97.3406L107.515 101.15C107.751 100.78 107.983 100.407 108.21 100.03Z" fill="#483127"/>
<path d="M110.798 103.348L116.573 107.214C116.827 106.856 117.077 106.496 117.323 106.132L111.497 102.231C111.268 102.606 111.035 102.979 110.798 103.348Z" fill="#483127"/>
<path d="M20.5343 82.6828C20.4286 82.2577 20.3289 81.8292 20.2348 81.3994L14.2188 82.5906C14.2953 83.0241 14.3764 83.4553 14.4636 83.8851L20.5343 82.6828Z" fill="#483127"/>
<path d="M5.14199 85.7305L10.5872 84.6525C10.5001 84.2227 10.4175 83.7919 10.3406 83.3584L4.85034 84.4457C4.94354 84.8755 5.03998 85.3044 5.14199 85.7305Z" fill="#483127"/>
<path d="M104.27 111.65L108.819 116.2C109.137 115.897 109.451 115.591 109.762 115.281L105.168 110.686C104.872 111.011 104.573 111.332 104.27 111.65Z" fill="#483127"/>
<path d="M86.6143 124.058L88.716 129.132C89.1245 128.97 89.5311 128.804 89.9355 128.634L87.8138 123.511C87.4159 123.698 87.0167 123.881 86.6143 124.058Z" fill="#483127"/>
<path d="M76.27 127.436L77.2613 132.443C77.6935 132.362 78.1247 132.277 78.554 132.188L77.5539 127.138C77.1278 127.243 76.6998 127.342 76.27 127.436Z" fill="#483127"/>
<path d="M128 72.0191H119.469C119.475 72.0191 119.482 72.5778 119.482 72.9103H127.954C127.972 72.9103 127.991 72.0191 128 72.0191Z" fill="#483127"/>
<path d="M119.482 72.9321C119.482 72.9247 119.482 72.9177 119.482 72.9103H119.479C119.479 72.9103 119.482 73.0336 119.482 72.9321Z" fill="#483127"/>
<path d="M115.531 72.9321C115.531 72.5927 115.524 72.0191 115.524 72.0191H109.772C109.762 72.0191 109.749 72.9103 109.726 72.9103H115.527C115.527 72.9103 115.531 73.0336 115.531 72.9321Z" fill="#483127"/>
<path d="M104.008 72.9103C104.034 72.9103 104.053 72.0191 104.064 72.0191H99.0723C99.0704 72.2426 99.069 72.6887 99.063 72.9103H104.008Z" fill="#483127"/>
<path d="M100.699 87.7187C100.877 87.3172 101.048 86.9128 101.213 86.5053L96.7568 84.6599C96.601 85.0712 96.4397 85.4792 96.269 85.8835L100.699 87.7187Z" fill="#483127"/>
<path d="M112.459 91.1632L106.486 88.6896C106.321 89.0967 106.149 89.5015 105.973 89.9025L111.991 92.3957C112.153 91.9881 112.308 91.5768 112.459 91.1632Z" fill="#483127"/>
<path d="M115.642 93.9081L122.554 96.7707C122.734 96.3711 122.91 95.9686 123.082 95.5638L116.113 92.6771C115.961 93.0897 115.804 93.5001 115.642 93.9081Z" fill="#483127"/>
<path d="M114.891 81.7847L108.911 80.5903C108.825 81.0211 108.735 81.4509 108.637 81.8779L114.666 83.083C114.746 82.6523 114.821 82.2192 114.891 81.7847Z" fill="#483127"/>
<path d="M103.036 80.7591C103.136 80.3325 103.228 79.9032 103.314 79.4711L98.4779 78.5048C98.3977 78.9378 98.3096 79.3681 98.2141 79.7956L103.036 80.7591Z" fill="#483127"/>
<path d="M118.542 83.8568L126.391 85.4254C126.489 84.9984 126.581 84.5699 126.674 84.1392L118.768 82.5595C118.697 82.9935 118.622 83.4265 118.542 83.8568Z" fill="#483127"/>
<path d="M95.9316 118.808L99.2259 123.747C99.5964 123.511 99.9627 123.269 100.328 123.025L97.0027 118.04C96.6489 118.3 96.2924 118.556 95.9316 118.808Z" fill="#483127"/>
<path d="M19.2995 105.021C19.0487 104.66 18.8029 104.296 18.5605 103.93L14.49 106.645C14.7404 107.006 14.994 107.364 15.2513 107.72L19.2995 105.021Z" fill="#483127"/>
<path d="M28.34 98.9912C28.0753 98.6402 27.8133 98.2874 27.5583 97.929L21.8469 101.738C22.089 102.105 22.3352 102.469 22.586 102.828L28.34 98.9912Z" fill="#483127"/>
<path d="M25.6252 112.59L22.3225 115.892C22.6378 116.198 22.9559 116.501 23.2772 116.8L26.5673 113.511C26.2493 113.208 25.9349 112.901 25.6252 112.59Z" fill="#483127"/>
<path d="M8.61304 96.1049C8.78876 96.5083 8.9682 96.9094 9.15227 97.3076L13.9224 95.3315C13.7495 94.9281 13.5816 94.5229 13.418 94.1149L8.61304 96.1049Z" fill="#483127"/>
<path d="M23.6449 91.3046C23.4548 90.9087 23.2717 90.5094 23.0927 90.1074L17.0684 92.6029C17.2316 93.0114 17.4003 93.4166 17.5733 93.8195L23.6449 91.3046Z" fill="#483127"/>
<path d="M34.171 119.576L31.6384 123.359C32.0056 123.6 32.3752 123.836 32.748 124.069L35.2772 120.291C34.9054 120.057 34.5368 119.818 34.171 119.576Z" fill="#483127"/>
<path d="M52.9585 132.333C53.3883 132.418 53.8195 132.5 54.253 132.576L55.1618 128.027C54.7274 127.958 54.2943 127.884 53.8631 127.805L52.9585 132.333Z" fill="#483127"/>
<path d="M44.0099 124.754L42.2754 128.941C42.682 129.106 43.09 129.267 43.5008 129.425L45.2377 125.231C44.8264 125.077 44.4165 124.918 44.0099 124.754Z" fill="#483127"/>
<path d="M64.0237 128.705V133.502C64.0237 133.506 64.689 133.512 64.9626 133.512C65.13 133.512 64.0237 133.507 65.583 133.506V128.68C64.0237 128.694 64.0237 128.702 64.0237 128.705Z" fill="#483127"/>
<path d="M42.9633 101.695C43.5034 102.078 43.6662 102.674 43.3903 103.456L43.6059 103.608L44.23 102.654C44.0617 102.387 43.5651 101.807 43.094 101.474C41.9733 100.678 40.6297 100.616 39.5915 102.079C38.59 103.491 39.0393 104.691 40.2648 105.561C40.7525 105.907 41.283 106.082 41.7017 106.169L42.4365 105.294L42.1982 105.125C41.6511 105.662 40.9969 105.748 40.4567 105.365C39.5447 104.718 39.6708 103.69 40.4539 102.587C41.1916 101.547 42.156 101.123 42.9633 101.695Z" fill="#483127"/>
<path d="M44.8829 108.052C43.9635 107.567 43.9871 106.605 44.6288 105.391C45.2334 104.244 46.049 103.644 46.8679 104.076C47.6737 104.501 47.798 105.396 47.0997 106.718C46.6249 107.619 45.7829 108.527 44.8829 108.052ZM47.9815 107.184C48.6427 105.93 48.4897 104.634 47.0793 103.889C45.7064 103.165 44.4118 103.665 43.7372 104.944C43.0264 106.292 43.2991 107.514 44.7095 108.258C46.0444 108.963 47.3333 108.411 47.9815 107.184Z" fill="#483127"/>
<path d="M53.8037 107.032L53.8747 106.839L52.4633 106.321L52.3928 106.515L52.8666 106.856L51.9106 109.463L50.7987 105.711L49.321 105.169L49.2505 105.363L49.7244 105.704L48.3315 109.501L47.7497 109.454L47.6787 109.648L49.0961 110.168L49.1671 109.974L48.6923 109.633L49.9558 106.19L51.414 111.086L51.6876 111.187L53.2283 106.988L53.8037 107.032Z" fill="#483127"/>
<path d="M55.7603 107.432C56.3144 107.565 56.5337 108.087 56.5021 108.702L56.7516 108.762L57.0293 107.701C56.7493 107.523 56.2856 107.288 55.8841 107.191C55.0462 106.988 54.2525 107.332 54.0522 108.163C53.6785 109.715 55.9949 109.987 55.6982 111.22C55.5813 111.705 55.0935 111.844 54.6503 111.737C53.9228 111.562 53.7276 110.973 53.7814 110.231L53.5115 110.166L53.2917 111.352C53.5913 111.6 54.1032 111.877 54.5608 111.987C55.5308 112.22 56.299 111.798 56.4975 110.974C56.8744 109.407 54.6113 109.068 54.8863 107.925C54.9869 107.509 55.4 107.345 55.7603 107.432Z" fill="#483127"/>
<path d="M61.3077 110.599C61.1881 111.611 60.7286 112.762 59.7173 112.642C58.6838 112.52 58.3612 111.613 58.523 110.248C58.6751 108.96 59.2212 108.106 60.1407 108.216C61.0462 108.323 61.4834 109.113 61.3077 110.599ZM57.5298 110.152C57.3504 111.666 58.0449 112.71 59.6292 112.897C61.1296 113.074 62.1349 112.096 62.2981 110.716C62.465 109.309 61.8553 108.154 60.2705 107.966C58.7283 107.783 57.6995 108.716 57.5298 110.152Z" fill="#483127"/>
<path d="M64.3765 108.654C64.504 108.623 64.6315 108.593 64.8096 108.59C65.4221 108.581 65.6845 108.94 65.6933 109.516C65.704 110.171 65.4193 110.604 64.7424 110.614L64.4076 110.619L64.3765 108.654ZM65.0066 112.889L64.4419 112.749L64.4118 110.869L64.4901 110.868C64.7178 110.864 64.798 110.977 64.944 111.216L65.8519 112.748C66.035 113.058 66.2362 113.176 66.5497 113.171C66.8418 113.166 67.2967 113.095 67.4103 113.058L67.407 112.851C67.0931 112.828 66.9489 112.758 66.8251 112.554L66.1375 111.433C65.8667 110.988 65.5728 110.844 65.1151 110.787C66.1959 110.676 66.6869 110.163 66.6763 109.479C66.6605 108.511 65.895 108.309 64.7985 108.327L62.833 108.358L62.8358 108.558L63.4014 108.712L63.4659 112.757L62.9063 112.923L62.909 113.13L65.0099 113.096L65.0066 112.889Z" fill="#483127"/>
<path d="M70.4617 112.816C71.0552 112.743 71.5657 112.516 71.9334 112.298L71.8861 111.155L71.5964 111.192C71.5542 111.958 71.128 112.462 70.471 112.543C69.3615 112.679 68.7624 111.835 68.5969 110.492C68.4407 109.227 68.8672 108.263 69.8497 108.142C70.5068 108.061 71.0288 108.391 71.3529 109.155L71.6135 109.123L71.4322 107.997C71.1271 107.913 70.3695 107.819 69.7973 107.89C68.4332 108.058 67.3979 108.917 67.6177 110.698C67.8291 112.416 68.9706 113 70.4617 112.816Z" fill="#483127"/>
<path d="M73.0536 112.301L75.1043 111.844L75.0603 111.643L74.4766 111.612L73.5974 107.662L74.113 107.386L74.0681 107.185L72.0164 107.641L72.0613 107.843L72.6451 107.874L73.5237 111.824L73.0086 112.099L73.0536 112.301Z" fill="#483127"/>
<path d="M78.1928 110.764C77.2047 111.09 76.5283 110.406 76.0961 109.1C75.689 107.869 75.8221 106.864 76.7022 106.573C77.5678 106.286 78.299 106.818 78.7691 108.238C79.0886 109.206 79.16 110.444 78.1928 110.764ZM79.716 107.926C79.2708 106.579 78.2295 105.79 76.7137 106.291C75.2384 106.779 74.701 108.06 75.1558 109.434C75.6348 110.882 76.7054 111.533 78.2211 111.032C79.6561 110.558 80.1523 109.245 79.716 107.926Z" fill="#483127"/>
<path d="M82.432 104.31L82.9675 104.013C84.1703 103.347 84.9612 104.041 85.4685 104.956C86.145 106.177 85.9591 107.135 84.9807 107.677L84.4573 107.967L82.432 104.31ZM83.2559 108.974L85.2126 107.89C86.6708 107.083 87.1066 105.857 86.3096 104.417C85.5886 103.115 84.4331 102.867 82.9759 103.675L80.9446 104.799L81.0447 104.98L81.6127 104.845L83.5726 108.384L83.1562 108.793L83.2559 108.974Z" fill="#483127"/>
<path d="M88.2509 106.117L91.1785 104.005L90.393 102.806L90.2312 102.923L90.5238 104.108L89.3229 104.974L88.1229 103.311L88.7869 102.832L89.4017 103.258L89.552 103.15L88.5518 101.764L88.4016 101.872L88.6121 102.59L87.9482 103.069L86.8812 101.59L88.0358 100.757L88.9306 101.315L89.092 101.198L88.3464 100.164L85.4587 102.248L85.5793 102.416L86.1278 102.213L88.4943 105.494L88.1299 105.95L88.2509 106.117Z" fill="#483127"/>
<path d="M32.6987 113.139C33.6831 113.87 34.8872 113.871 35.7876 112.658L37.7174 110.057L38.3777 110.311L38.527 110.11L37.0641 109.025L36.9148 109.226L37.3493 109.785L35.4455 112.35C34.7096 113.342 33.8226 113.393 33.1295 112.878C32.4219 112.353 32.3195 111.579 32.9524 110.726L34.9637 108.015L35.6254 108.269L35.7742 108.067L33.729 106.55L33.5797 106.751L34.0141 107.31L31.9564 110.083C30.9735 111.408 31.8317 112.496 32.6987 113.139Z" fill="#483127"/>
<path d="M43.7395 113.325L43.8619 113.106L42.2716 112.217L42.1492 112.436L42.6518 112.935L41.0081 115.874L40.3947 111.168L38.7288 110.237L38.6073 110.456L39.1099 110.955L36.716 115.235L36.0279 115.068L35.9055 115.287L37.5037 116.18L37.6257 115.962L37.1226 115.463L39.2935 111.581L40.1035 117.723L40.4123 117.896L43.0589 113.163L43.7395 113.325Z" fill="#483127"/>
<path d="M46.5122 114.481L46.6128 114.252L44.2806 113.23L44.1805 113.46L44.7285 113.907L42.7612 118.398L42.0606 118.298L41.96 118.527L44.2922 119.549L44.3928 119.319L43.8438 118.872L45.8116 114.382L46.5122 114.481Z" fill="#483127"/>
<path d="M47.7501 120.896L48.0617 120.998L51.8512 116.541L52.5694 116.567L52.6473 116.329L50.8826 115.753L50.8052 115.99L51.3861 116.38L48.8086 119.462L48.6811 115.515L49.385 115.527L49.4633 115.289L46.9521 114.469L46.8738 114.707L47.4631 115.099L47.7501 120.896Z" fill="#483127"/>
<path d="M52.9612 116.366L52.9116 116.612L53.5431 116.932L52.5764 121.742L51.8702 121.794L51.821 122.04L56.1136 122.902L56.5328 121.216L56.2954 121.168L55.483 122.405L53.7216 122.051L54.2117 119.613L55.1849 119.809L55.3133 120.706L55.5331 120.75L55.9416 118.718L55.7218 118.674L55.2572 119.453L54.2826 119.257L54.7184 117.089L56.4122 117.43L56.6533 118.685L56.8903 118.733L57.1949 117.217L52.9612 116.366Z" fill="#483127"/>
<path d="M59.9189 120.308L59.5146 120.272L59.7219 117.898C59.8791 117.878 60.0372 117.857 60.2523 117.876C60.9923 117.94 61.2636 118.406 61.2028 119.103C61.1337 119.894 60.7359 120.379 59.9189 120.308ZM62.1886 122.907L61.4991 121.469C61.2279 120.899 60.8908 120.688 60.3469 120.562C61.6642 120.564 62.3198 120.006 62.3916 119.18C62.4941 118.011 61.5965 117.672 60.2713 117.557L57.8974 117.349L57.8761 117.59L58.5386 117.848L58.1125 122.733L57.4161 122.863L57.3943 123.113L59.9324 123.334L59.9542 123.084L59.2902 122.845L59.4887 120.574L59.5828 120.582C59.8582 120.606 59.9408 120.752 60.0877 121.06L60.9914 123.019C61.1727 123.416 61.4013 123.584 61.7796 123.616C62.1324 123.648 62.6893 123.618 62.8312 123.587L62.853 123.338C62.4774 123.27 62.3124 123.169 62.1886 122.907Z" fill="#483127"/>
<path d="M64.6271 118.794C64.6187 118.276 65.0541 117.957 65.5024 117.95C66.1938 117.939 66.6083 118.485 66.7585 119.217L67.0692 119.212L67.0738 117.881C66.6918 117.758 66.0765 117.622 65.5753 117.629C64.5306 117.646 63.7035 118.291 63.7202 119.326C63.7517 121.261 66.5522 120.878 66.5777 122.416C66.5874 123.02 66.0575 123.331 65.5043 123.34C64.5974 123.355 64.1899 122.723 64.029 121.836L63.6914 121.84L63.7934 123.299C64.22 123.499 64.9048 123.67 65.4751 123.66C66.6839 123.64 67.4577 122.911 67.441 121.884C67.4095 119.932 64.6502 120.219 64.6271 118.794Z" fill="#483127"/>
<path d="M70.8808 122.96L70.1844 122.832L69.7429 117.946L70.4055 117.695L70.3833 117.446L67.8447 117.675L67.8679 117.924L68.5648 118.052L69.0057 122.938L68.3432 123.189L68.3654 123.439L70.9035 123.209L70.8808 122.96Z" fill="#483127"/>
<path d="M74.4349 122.303L73.7227 122.44L72.7671 117.462L73.4964 117.322C75.1336 117.007 75.7837 118.105 76.0234 119.351C76.3419 121.014 75.7665 122.048 74.4349 122.303ZM77.1955 119.047C76.8552 117.275 75.6181 116.554 73.6332 116.935L70.8684 117.466L70.9152 117.711L71.6214 117.769L72.5459 122.587L71.9121 122.902L71.9589 123.148L74.6222 122.637C76.6067 122.256 77.572 121.006 77.1955 119.047Z" fill="#483127"/>
<path d="M79.6 117.048L80.8074 118.573L79.4679 119.005L79.6 117.048ZM80.0303 121.092L79.3316 121.118L79.4387 119.422L81.0666 118.898L82.1126 120.204L81.5349 120.608L81.6118 120.846L84.11 120.041L84.0335 119.803L83.3264 119.831L79.6209 115.281L79.3496 115.369L78.8846 121.252L78.2878 121.653L78.3648 121.891L80.1073 121.33L80.0303 121.092Z" fill="#483127"/>
<path d="M87.3009 118.2L86.6457 118.511L84.467 113.934L85.1374 113.615C86.6429 112.898 87.5485 113.797 88.0942 114.943C88.8212 116.472 88.5254 117.617 87.3009 118.2ZM85.1727 113.206L82.6309 114.416L82.738 114.642L83.4358 114.52L85.544 118.95L85.0095 119.415L85.1175 119.641L87.5656 118.476C89.3906 117.606 90.01 116.155 89.1523 114.353C88.3766 112.723 86.9976 112.338 85.1727 113.206Z" fill="#483127"/>
<path d="M91.3302 116.578L95.0394 114.255L94.1845 112.743L93.9795 112.872L94.2401 114.328L92.7184 115.281L91.3983 113.174L92.2394 112.647L92.9498 113.211L93.1398 113.092L92.04 111.336L91.8499 111.455L92.047 112.34L91.2059 112.867L90.0329 110.994L91.4961 110.077L92.5334 110.823L92.7383 110.695L91.9181 109.386L88.2603 111.677L88.3933 111.888L89.0717 111.688L91.6747 115.843L91.1976 116.366L91.3302 116.578Z" fill="#483127"/>
<path d="M97.4258 112.228C96.7081 112.782 96.0033 112.52 95.3435 111.906L95.0769 112.112L96.0306 113.219C96.492 113.124 97.143 112.851 97.5936 112.502C98.5506 111.763 98.7338 110.715 98.106 109.902C96.913 108.358 94.8738 110.239 94.0031 109.111C93.6864 108.701 93.844 108.186 94.1997 107.911C94.7468 107.489 95.4057 107.678 95.9639 108.175L96.2096 107.985L95.4172 106.917C95.0375 107.046 94.4621 107.305 94.0661 107.611C93.2394 108.25 92.9617 109.26 93.5951 110.081C94.7779 111.612 96.7929 109.629 97.7323 110.845C98.1018 111.324 97.8631 111.89 97.4258 112.228Z" fill="#483127"/>
</svg>
